<svg width="35" height="59" viewBox="0 0 35 59" fill="none" xmlns="http://www.w3.org/2000/svg">
<path fill-rule="evenodd" clip-rule="evenodd" d="M34.998 18.9904C34.997 18.8754 34.961 18.7644 34.92 18.6554C34.908 18.6234 34.911 18.5874 34.896 18.5564L34.895 18.5524L28 4.76244V0.999442C28 0.697442 27.864 0.412442 27.63 0.223442C27.396 0.0334416 27.088 -0.0405584 26.794 0.0214416L7.794 4.02144C7.331 4.11844 7 4.52644 7 4.99944V8.68444L0.181 18.4264C0.175 18.4354 0.175 18.4474 0.169 18.4564C0.096 18.5684 0.045 18.6924 0.021 18.8244C0.017 18.8444 0.016 18.8624 0.014 18.8824C0.009 18.9214 0 18.9594 0 18.9994V31.9994V46.9994V51.9994C0 52.3994 0.238 52.7614 0.606 52.9184L14.606 58.9184C14.617 58.9234 14.628 58.9214 14.639 58.9254C14.755 58.9694 14.875 58.9994 15 58.9994C15.085 58.9994 15.17 58.9884 15.254 58.9664L34.254 53.9664C34.694 53.8504 35 53.4534 35 52.9994V37.9994V21.9994V18.9994L34.998 18.9904ZM21 5.24044V3.28444L23 2.86344V4.81944L21 5.24044ZM19 5.66144L17 6.08244V4.12644L19 3.70544V5.66144ZM15 6.50344L13 6.92444V4.99944C13 4.98944 12.994 4.98044 12.994 4.97044L15 4.54744V6.50344ZM9.439 9.71844L19.16 7.67144L26.451 6.13644L32.555 18.3454L26.373 19.9724L15.553 22.8194L10.458 11.9014L9.439 9.71844ZM33 21.5344L16 35.8504V24.7694L33 20.2954V21.5344ZM2 20.4184L14 24.7044V36.4834L2 31.3404V20.4184ZM2 33.5154L14 38.6584V51.4824L2 46.3394V33.5154ZM16 38.4644L33 24.1494V37.5154L16 50.9354V38.4644ZM26 4.18744L25 4.39744V2.44244L26 2.23244V4.18744ZM9 5.81044L11 5.38944V7.34544L9 7.76644V5.81044ZM7.826 10.9914L10.454 16.6214L13.081 22.2514L2.571 18.4974L7.826 10.9914ZM2 48.5154L14 53.6584V56.4824L2 51.3394V48.5154ZM16 56.7024V53.4844L33 40.0634V52.2294L16 56.7024ZM20.1 17.8614C20.564 18.4084 21.322 18.9784 22.459 18.9784C22.767 18.9784 23.103 18.9374 23.468 18.8414C25.182 18.3924 25.75 17.2324 25.925 16.3374C26.119 15.3444 25.898 14.3004 25.715 13.6024C24.773 10.0034 22.735 9.73044 21.191 10.1334C19.646 10.5374 18.003 11.7754 18.944 15.3734C19.125 16.0724 19.444 17.0914 20.1 17.8614ZM21.696 12.0694C21.863 12.0254 22.031 11.9914 22.198 11.9914C22.768 11.9914 23.328 12.3834 23.78 14.1084C23.913 14.6184 24.077 15.3634 23.962 15.9544C23.888 16.3324 23.716 16.7094 22.962 16.9064C22.209 17.1044 21.874 16.8594 21.624 16.5664C21.234 16.1064 21.012 15.3774 20.878 14.8684C20.293 12.6364 20.962 12.2614 21.696 12.0694Z" fill="white"/>
</svg>
