<svg width="47" height="45" viewBox="0 0 47 45" fill="none" xmlns="http://www.w3.org/2000/svg">
<path fill-rule="evenodd" clip-rule="evenodd" d="M8.87257 30.5424C7.72749 29.4389 5.86759 29.4389 4.72447 30.5424C4.17099 31.0772 3.86492 31.7895 3.86492 32.5472C3.86492 33.304 4.17099 34.0164 4.72447 34.5511C5.29652 35.1038 6.04752 35.3797 6.79852 35.3797C7.54952 35.3797 8.30052 35.1038 8.87257 34.5511C9.42604 34.0164 9.73211 33.304 9.73211 32.5472C9.73211 31.7895 9.42702 31.0781 8.87257 30.5424ZM46.2475 12.995C46.0998 12.3005 45.6207 11.7167 44.9674 11.438C44.5264 11.2481 44.3621 10.8135 44.1421 10.1209C43.9182 9.41045 43.5104 8.09721 41.9713 8.22381C41.4501 8.27388 40.9924 8.13027 40.6795 7.82889C40.3676 7.5275 40.2219 7.08345 40.2708 6.58083C40.3734 5.50756 40.0283 4.52782 39.2968 3.82018C38.6064 3.15411 37.6628 2.83194 36.5764 2.86784C36.5637 2.80832 36.551 2.74218 36.5402 2.68644C36.4004 1.97218 36.1119 0.500213 33.986 0.223392C33.6105 0.108129 32.5808 -0.131846 31.7262 0.374557C31.3184 0.617366 30.8109 1.11338 30.7043 2.19515L30.6818 8.11232H20.6978C19.143 8.11232 17.6352 8.29467 16.1781 8.61306C15.656 6.71216 14.7915 4.91329 13.5575 3.26748L13.0724 2.6203L12.3312 2.97365C12.1454 3.06246 7.76558 5.19672 6.55791 8.8672C6.06898 10.3515 6.16188 11.8603 6.83074 13.3644C2.75207 16.9904 0.176373 22.1726 0.176373 27.9367V44.9569H17.6567C23.1748 44.9569 28.3614 42.8812 32.263 39.1106C32.7363 38.6533 33.1822 38.1753 33.6037 37.6831C34.0339 37.7171 34.4799 37.7416 34.959 37.7416C37.7176 37.7416 41.2252 37.0878 44.7112 34.6475L45.3811 34.1789L45.0134 33.4627C44.901 33.2426 42.3869 28.4563 38.1048 27.6948C38.228 26.8067 38.3141 25.9101 38.3131 24.9994V15.4098L44.4902 15.4656L44.5685 15.4533C45.0134 15.3871 45.4124 15.1821 45.7253 14.859L45.7282 14.8562C46.1976 14.3668 46.3912 13.6705 46.2475 12.995ZM8.41585 12.0671C8.13324 11.18 8.13618 10.3146 8.42074 9.44725C9.11306 7.33377 11.3093 5.77394 12.4701 5.07385C13.3101 6.33797 13.9281 7.68901 14.3173 9.10524C13.4333 9.38584 12.5825 9.73163 11.7553 10.1209C11.5548 10.2144 11.3504 10.3013 11.1539 10.4015C10.8801 10.5413 10.617 10.6953 10.3501 10.8455C10.0772 10.9995 9.80637 11.1545 9.54137 11.3208C9.30081 11.4719 9.0671 11.6297 8.83437 11.7903C8.69551 11.8848 8.55079 11.9689 8.41585 12.0671ZM37.761 29.5458C40.2262 29.9908 42.0558 32.382 42.8391 33.5961C40.0169 35.3515 37.2251 35.8465 34.9878 35.8513C36.26 33.9626 37.1714 31.886 37.716 29.6998C37.7297 29.6478 37.7483 29.5977 37.761 29.5458ZM7.48963 33.2152C7.10729 33.5846 6.48927 33.5846 6.10693 33.2152C5.92309 33.0366 5.82042 32.7995 5.82042 32.5472C5.82042 32.294 5.92211 32.0578 6.10693 31.8793C6.29761 31.695 6.54795 31.6034 6.79828 31.6034C7.04861 31.6034 7.29895 31.695 7.48963 31.8793V31.8802C7.67445 32.0578 7.77614 32.294 7.77614 32.5472C7.77614 32.7985 7.67445 33.0357 7.48963 33.2152ZM44.295 13.5741L36.3577 13.5042V25.0003C36.3577 26.0935 36.2443 27.1686 36.0497 28.222L36.0242 28.3553C35.9685 28.6406 35.901 28.925 35.8306 29.2075C35.8003 29.3293 35.769 29.4503 35.7367 29.5712C35.0943 31.935 33.9512 34.1779 32.3807 36.1166L32.0023 36.5834C31.6463 36.9934 31.2777 37.394 30.8817 37.7766C27.3496 41.1892 22.6529 43.0693 17.658 43.0693H2.13244V27.9377C2.13244 22.4494 4.70325 17.5356 8.73498 14.2421C10.2634 12.995 11.96 12.0068 13.8023 11.2972C13.8169 11.2916 13.8316 11.2878 13.8453 11.2821C14.4526 11.0497 15.0755 10.8475 15.713 10.6765C17.302 10.2476 18.9693 10 20.6992 10H32.6311L32.6565 2.29156C32.677 2.08937 32.7288 1.99679 32.7523 1.98356C32.8491 1.92498 33.1875 1.9486 33.4143 2.02891L33.6588 2.08748C34.4509 2.17252 34.4939 2.38982 34.619 3.03794C34.7207 3.54906 34.9887 4.90388 36.6227 4.76122C37.1419 4.71398 37.6015 4.85475 37.9154 5.15614C38.2274 5.45847 38.3731 5.90251 38.3242 6.40514C38.2215 7.47841 38.5667 8.45815 39.2981 9.16485C40.0081 9.84981 40.9928 10.1795 42.0733 10.1125C42.1388 10.2495 42.2171 10.496 42.2738 10.6727C42.5173 11.4437 42.8859 12.6095 44.1738 13.1641C44.2667 13.2038 44.3165 13.3002 44.3322 13.3767C44.341 13.4154 44.3527 13.5118 44.294 13.5732L44.295 13.5741ZM44.4279 13.7187V13.6922L45.0117 14.2147L44.4279 13.7187ZM6.79864 23.585V25.4746C14.3477 25.4746 20.4887 31.4078 20.4887 38.7015H22.4445C22.4445 30.3667 15.4254 23.585 6.79864 23.585ZM9.9814 20.5107V22.4002C17.5305 22.4002 23.6715 28.3335 23.6715 35.6272H25.6272C25.6272 27.2914 18.6081 20.5107 9.9814 20.5107ZM13.0219 17.5724V19.462C20.571 19.462 26.712 25.3952 26.712 32.6889H28.6677C28.6677 24.354 21.6496 17.5724 13.0219 17.5724ZM16.2049 14.4971V16.3867C23.754 16.3867 29.895 22.3199 29.895 29.6136H31.8507C31.8507 21.2788 24.8326 14.4971 16.2049 14.4971Z" fill="#F9F9F9"/>
</svg>
