<svg width="59" height="58" viewBox="0 0 59 58" fill="none" xmlns="http://www.w3.org/2000/svg">
<path fill-rule="evenodd" clip-rule="evenodd" d="M49.8622 8.13021C46.7572 5.02621 43.3712 2.55421 40.3262 1.17021C36.9792 -0.35079 34.3412 -0.39079 32.8912 1.06021C32.8902 1.06221 32.8882 1.06321 32.8862 1.06521C28.5412 5.41221 24.0782 12.5232 21.5162 19.1832C19.2072 25.1862 18.6442 30.1302 19.8242 33.5402L13.4172 39.9472C11.2872 42.0772 8.33924 43.1962 5.30924 43.0032C4.82224 42.9732 4.32724 43.0152 3.83624 43.1272C2.00624 43.5452 0.553242 44.9952 0.133242 46.8212C-0.216758 48.3442 0.130242 49.9072 1.08624 51.1062C1.82924 52.0402 2.85724 52.6642 3.99924 52.8942C3.97324 53.9302 4.33324 55.1692 5.76024 56.5752C6.69324 57.4932 7.84824 57.9932 9.02724 57.9932C9.06924 57.9932 9.11124 57.9932 9.15224 57.9922C11.8702 57.9092 13.9982 55.7142 13.9982 52.9372C13.9612 49.6942 15.0482 46.8012 17.0572 44.7922L23.9032 37.9462C25.1792 38.4882 26.6902 38.7662 28.4212 38.7662C31.3282 38.7662 34.8372 38.0022 38.8082 36.4752C45.4692 33.9122 52.5802 29.4512 56.9272 25.1052C56.9282 25.1042 56.9302 25.1022 56.9322 25.1002C60.1482 21.8862 55.6892 13.9582 49.8622 8.13021ZM22.1222 36.9002L15.6442 43.3792C13.2512 45.7722 11.9572 49.1742 11.9992 52.9942C11.9992 54.6262 10.7222 55.9432 9.09224 55.9922C8.43924 56.0372 7.73624 55.7132 7.16324 55.1492C5.83024 53.8372 5.91324 52.9902 6.11224 52.2342L6.44924 50.9532L5.12524 50.9792C5.05924 50.9812 4.99424 50.9882 4.99924 50.9942C4.08024 50.9942 3.22424 50.5812 2.65124 49.8612C2.06824 49.1302 1.86724 48.2092 2.08324 47.2692C2.32924 46.2022 3.21224 45.3212 4.28224 45.0762C4.58724 45.0072 4.89124 44.9812 5.18724 44.9992C8.77024 45.2232 12.2962 43.8972 14.8332 41.3612L20.7672 35.4272C20.7872 35.4572 20.8142 35.4792 20.8342 35.5092C21.0612 35.8312 21.3042 36.1382 21.5792 36.4142C21.7482 36.5842 21.9302 36.7462 22.1222 36.9002ZM38.0912 34.6092C31.9192 36.9842 26.9602 37.4012 24.1312 35.8422C23.9502 35.7412 23.7812 35.6322 23.6192 35.5172C23.5892 35.4962 23.5552 35.4772 23.5252 35.4552C23.3442 35.3212 23.1772 35.1772 23.0232 35.0262C23.0132 35.0162 23.0022 35.0092 22.9922 34.9992C22.9892 34.9962 22.9872 34.9932 22.9842 34.9902C22.7892 34.7942 22.6122 34.5702 22.4472 34.3302C22.4122 34.2802 22.3802 34.2282 22.3472 34.1772C22.1932 33.9362 22.0492 33.6792 21.9242 33.3992C21.9172 33.3842 21.9092 33.3702 21.9022 33.3552L21.8572 33.2532C20.6572 30.3512 21.1712 25.6522 23.3842 19.9002C25.3842 14.7002 28.5752 9.22621 31.9282 5.12121C31.9742 5.41521 32.0422 5.72321 32.1222 6.03721C32.1452 6.12621 32.1732 6.21821 32.1982 6.30921C32.2692 6.56421 32.3512 6.82421 32.4442 7.09021C32.4802 7.19321 32.5152 7.29521 32.5542 7.40021C32.6872 7.75621 32.8322 8.11821 33.0022 8.49321C34.3862 11.5372 36.8582 14.9242 39.9622 18.0282C43.0662 21.1332 46.4532 23.6052 49.4982 24.9892C49.8812 25.1632 50.2522 25.3112 50.6162 25.4462C50.7182 25.4842 50.8172 25.5182 50.9182 25.5532C51.2032 25.6522 51.4822 25.7392 51.7542 25.8132C51.8322 25.8342 51.9112 25.8592 51.9882 25.8792C52.2902 25.9552 52.5862 26.0192 52.8712 26.0642C48.7652 29.4182 43.2912 32.6082 38.0912 34.6092ZM50.3272 23.1702C47.4952 21.8832 44.3172 19.5552 41.3772 16.6152C38.4382 13.6762 36.1102 10.4982 34.8232 7.66621C33.7062 5.20821 33.5122 3.26821 34.3062 2.47421C34.6302 2.15121 35.1432 1.99121 35.8052 1.99121C36.7672 1.99121 38.0422 2.32921 39.4992 2.99121C42.3312 4.27821 45.5092 6.60521 48.4482 9.54521C54.5182 15.6162 57.1882 22.0192 55.5192 23.6882C54.7252 24.4802 52.7852 24.2872 50.3272 23.1702ZM47.0342 10.9592C44.3032 8.22821 41.8882 6.58121 40.3452 5.68221C39.5192 5.20021 38.5102 5.32921 37.8372 6.00321C37.1632 6.67721 37.0342 7.68621 37.5152 8.51221C38.4142 10.0562 40.0602 12.4692 42.7922 15.2012C45.5242 17.9332 47.9382 19.5792 49.4812 20.4782C49.8142 20.6722 50.1772 20.7672 50.5352 20.7672C51.0662 20.7672 51.5882 20.5592 51.9902 20.1562C52.6642 19.4822 52.7932 18.4742 52.3112 17.6472C51.4112 16.1042 49.7652 13.6902 47.0342 10.9592ZM50.4872 18.7502C49.0462 17.9102 46.7862 16.3682 44.2052 13.7872C41.6242 11.2062 40.0822 8.94621 39.2432 7.50621L39.3382 7.41021C40.7802 8.25021 43.0402 9.79321 45.6202 12.3732C48.2002 14.9532 49.7432 17.2132 50.5832 18.6552L50.4872 18.7502ZM37.1262 18.5322C36.2502 17.6552 35.4532 16.7052 34.8242 15.7832C34.0172 14.6022 32.6872 13.9292 31.2392 13.9982C29.7982 14.0602 28.5172 14.8432 27.8142 16.0932C27.1372 17.2932 26.5512 18.5092 26.0722 19.7062C25.8662 20.2192 26.1152 20.8012 26.6282 21.0072C27.1422 21.2112 27.7232 20.9622 27.9282 20.4502C28.3752 19.3342 28.9232 18.1982 29.5562 17.0732C29.9182 16.4302 30.5792 16.0282 31.3262 15.9962C32.0762 15.9602 32.7602 16.3062 33.1742 16.9122C33.8822 17.9482 34.7372 18.9702 35.7142 19.9462C36.6912 20.9222 37.7122 21.7772 38.7482 22.4852C38.9212 22.6032 39.1172 22.6602 39.3112 22.6602C39.6302 22.6602 39.9442 22.5082 40.1382 22.2242C40.4502 21.7682 40.3332 21.1462 39.8772 20.8342C38.9402 20.1952 38.0162 19.4212 37.1262 18.5322ZM37.5082 29.4382C32.5532 32.2272 27.9912 33.0762 26.4172 31.5012C25.8922 30.9772 25.6272 30.1342 25.6292 28.9962C25.6302 28.4432 25.1832 27.9952 24.6302 27.9942H24.6292C24.0772 27.9942 23.6302 28.4402 23.6292 28.9932C23.6272 30.6812 24.0882 32.0012 25.0032 32.9152C25.9722 33.8842 27.3382 34.2862 28.9092 34.2852C31.8212 34.2852 35.4312 32.9022 38.4902 31.1812C38.9712 30.9102 39.1412 30.3002 38.8712 29.8202C38.6002 29.3382 37.9912 29.1662 37.5082 29.4382Z" fill="white"/>
</svg>
