<svg width="45" height="42" viewBox="0 0 45 42" fill="none" xmlns="http://www.w3.org/2000/svg">
<path fill-rule="evenodd" clip-rule="evenodd" d="M44.4197 10.5025C43.549 5.08368 39.311 0.917125 33.8733 0.133125C32.7465 -0.0286532 31.5957 -0.0340976 30.4518 0.111347C28.8586 -0.0908754 27.2778 -0.00298649 25.7506 0.38668C22.5595 1.20024 19.1868 1.20024 15.9958 0.385902C14.3956 -0.0216532 12.738 -0.107209 11.0687 0.133125C5.68613 0.907791 1.45595 5.02224 0.542556 10.371C-0.147341 14.4116 1.06483 18.4 3.86787 21.3136C5.49367 23.0037 6.38922 25.1503 6.38922 27.3577V36.2189C6.38922 38.9699 8.62265 41.2083 11.3675 41.2083H30.032H33.2261C35.9717 41.2083 38.2052 38.9699 38.2052 36.2189V27.7022C38.2052 25.4303 39.162 23.2238 40.8988 21.4886C43.7934 18.596 45.077 14.5928 44.4197 10.5025ZM14.0045 3.33898C13.7011 3.03487 13.2106 3.03487 12.9072 3.33898L4.37076 11.8945C4.06733 12.1987 4.06733 12.6902 4.37076 12.9943C4.52209 13.146 4.72075 13.2222 4.91942 13.2222C5.11808 13.2222 5.31675 13.146 5.46807 12.9943L14.0045 4.43876C14.3079 4.13465 14.3079 3.64232 14.0045 3.33898ZM19.0483 6.06109C18.7448 5.75698 18.2544 5.75698 17.9509 6.06109L6.31039 17.7278C6.00696 18.0319 6.00696 18.5234 6.31039 18.8275C6.46172 18.9792 6.66038 19.0554 6.85905 19.0554C7.05771 19.0554 7.25638 18.9792 7.40771 18.8275L19.0483 7.16087C19.3517 6.85676 19.3517 6.36442 19.0483 6.06109ZM31.853 32.8946C31.5496 32.5905 31.0591 32.5905 30.7557 32.8946L26.0995 37.5613C25.796 37.8654 25.796 38.3569 26.0995 38.661C26.2508 38.8127 26.4494 38.8889 26.6481 38.8889C26.8468 38.8889 27.0454 38.8127 27.1968 38.661L31.853 33.9944C32.1564 33.6903 32.1564 33.1979 31.853 32.8946ZM31.8532 25.1168C31.5498 24.8126 31.0593 24.8126 30.7559 25.1168L19.1153 36.7834C18.8119 37.0875 18.8119 37.5791 19.1153 37.8832C19.2666 38.0349 19.4653 38.1111 19.664 38.1111C19.8626 38.1111 20.0613 38.0349 20.2126 37.8832L31.8532 26.2165C32.1566 25.9124 32.1566 25.4201 31.8532 25.1168ZM9.73607 24.2721L29.137 4.82768C29.4404 4.52357 29.4404 4.03201 29.137 3.7279C28.8336 3.42379 28.3431 3.42379 28.0397 3.7279L8.63875 23.1723C8.33532 23.4765 8.33532 23.968 8.63875 24.2721C8.79008 24.4238 8.98874 24.5 9.18741 24.5C9.38607 24.5 9.58474 24.4238 9.73607 24.2721ZM34.9573 6.45025C34.6538 6.14614 34.1634 6.14614 33.86 6.45025L9.02677 31.3391C8.72334 31.6433 8.72334 32.1348 9.02677 32.4389C9.1781 32.5906 9.37676 32.6668 9.57543 32.6668C9.77409 32.6668 9.97276 32.5906 10.1241 32.4389L34.9573 7.55003C35.2607 7.24592 35.2607 6.75358 34.9573 6.45025ZM37.2854 11.8946C36.982 11.5905 36.4915 11.5905 36.1881 11.8946L11.3549 36.7835C11.0515 37.0876 11.0515 37.5791 11.3549 37.8833C11.5062 38.0349 11.7049 38.1111 11.9036 38.1111C12.1022 38.1111 12.3009 38.0349 12.4522 37.8833L37.2854 12.9944C37.5888 12.6903 37.5888 12.1979 37.2854 11.8946ZM7.941 36.2179V27.3575C7.941 24.7457 6.89102 22.2156 4.98507 20.2338C2.52814 17.6804 1.46652 14.1811 2.0726 10.6337C2.87192 5.95226 6.57517 2.35115 11.2888 1.67293C11.8328 1.59359 12.3745 1.55548 12.9131 1.55548C13.8272 1.55548 14.7298 1.66826 15.6121 1.89304C19.0523 2.77115 22.6904 2.77193 26.1321 1.89381C27.5026 1.54459 28.9227 1.4707 30.3576 1.66437C30.3592 1.66437 30.3599 1.66515 30.3615 1.66515L30.4577 1.6737C35.2195 2.3597 38.9305 6.0067 39.6926 10.7504C40.2699 14.3398 39.1454 17.8523 36.6078 20.387C36.1003 20.8941 35.6494 21.437 35.2583 22.0079C34.0865 23.7206 33.4571 25.686 33.4571 27.702V27.7028V36.2187C33.4571 38.1126 31.9205 39.6526 30.0309 39.6526H11.3672C9.47755 39.6518 7.941 38.1118 7.941 36.2179ZM39.8029 20.3864C37.7713 22.4157 36.653 25.0134 36.653 27.7014V36.2181C36.653 37.9619 35.3492 39.4062 33.6676 39.624C33.7056 39.5828 33.7397 39.5377 33.777 39.4957C33.8236 39.4428 33.8701 39.3899 33.9144 39.3347C33.9679 39.267 34.0183 39.197 34.0688 39.127C34.1099 39.0702 34.1518 39.0134 34.1898 38.9551C34.238 38.882 34.2822 38.8058 34.3264 38.7295C34.3613 38.6697 34.397 38.6113 34.4296 38.5499C34.4715 38.4705 34.5088 38.3881 34.5468 38.3064C34.5755 38.2442 34.6058 38.1835 34.6322 38.1205C34.6671 38.0358 34.6966 37.9479 34.7276 37.8608C34.7501 37.797 34.7742 37.7355 34.7936 37.671C34.8215 37.5777 34.844 37.4828 34.8665 37.3871C34.8813 37.3257 34.8991 37.265 34.9116 37.202C34.9333 37.0939 34.9473 36.9834 34.962 36.873C34.969 36.8209 34.9798 36.7695 34.9845 36.7167C35.0008 36.5525 35.0101 36.3861 35.0101 36.2173V27.7022C35.0101 26.282 35.3842 24.8874 36.088 23.6173C36.511 22.8551 37.0526 22.138 37.7037 21.487C40.5984 18.5952 41.8819 14.5912 41.2246 10.5017C41.1625 10.1159 41.0787 9.73788 40.9833 9.36533C40.9538 9.25022 40.9181 9.13822 40.8855 9.02388C40.8118 8.76488 40.7311 8.50977 40.6418 8.25933C40.5976 8.13566 40.5518 8.01355 40.5037 7.89222C40.4067 7.64566 40.3011 7.40377 40.1894 7.16499C40.1405 7.05999 40.0939 6.95422 40.0419 6.84999C39.8844 6.53733 39.7168 6.23166 39.5344 5.93455C39.522 5.91433 39.5119 5.89333 39.4995 5.8731C39.3016 5.55422 39.0866 5.24777 38.8616 4.9491C38.8011 4.86899 38.7359 4.79355 38.6738 4.71499C38.5031 4.50033 38.3277 4.29033 38.143 4.0881C38.0623 3.99944 37.98 3.9131 37.897 3.82677C37.7123 3.63466 37.5214 3.45033 37.325 3.27066C37.2443 3.19677 37.1652 3.1221 37.0829 3.05055C36.8268 2.82888 36.5622 2.61655 36.2882 2.41666C36.2665 2.4011 36.2479 2.38244 36.2262 2.36688C39.7113 3.77699 42.2692 6.90288 42.8869 10.7498C43.4643 14.3392 42.3398 17.8517 39.8029 20.3864Z" fill="#F9F9F9"/>
</svg>
