<svg width="36" viewBox="0 0 36 0" fill="none" xmlns="http://www.w3.org/2000/svg">
<path fill-rule="evenodd" clip-rule="evenodd" d="M35.7633 13.9337C35.8191 11.2279 34.2235 8.79369 31.7509 7.74164C31.3902 5.43256 29.5218 3.62796 27.1999 3.32222C27.179 3.09221 27.135 2.8629 27.0687 2.63637C26.6592 1.24383 25.4264 0.195261 24.0024 0.0271003C23.0926 -0.0806059 22.1947 0.148009 21.4635 0.658745C20.814 0.2307 20.0584 0 19.284 0C17.2893 0 15.6316 1.46758 15.3428 3.37572C15.2716 3.39031 15.2032 3.41047 15.1334 3.42714C15.0679 3.2694 15.0002 3.11375 14.9234 2.96227C13.9041 0.952679 12.1041 -0.215412 10.4359 0.0528108C9.34127 0.230005 8.43428 0.970746 7.90194 2.08811C6.93914 1.64686 5.9568 1.57182 5.06934 1.88312C4.12258 2.21527 3.38722 2.92474 2.9428 3.93579C2.35326 5.27552 2.35256 6.99812 2.92257 8.63665C2.15442 9.16198 1.58022 9.93399 1.24463 10.902C0.680208 12.5273 0.868582 14.4882 1.76092 16.2845C1.8586 16.4804 1.96534 16.675 2.08186 16.8661C1.24394 17.4088 0.616718 18.2135 0.280434 19.1953C-0.253992 20.7533 -0.0174773 22.5891 0.929281 24.2304C1.36394 24.9844 1.93953 25.6674 2.61 26.2289C2.38605 27.1628 2.55558 28.1891 3.10117 29.1182C3.86933 30.4232 5.25074 31.3029 6.70611 31.444C8.9987 35.7321 11.8432 37.5735 16.2204 39.4219L16.2693 39.4427C16.8846 39.827 17.5865 40 18.2807 40C18.693 40 19.0998 39.9368 19.4835 39.8284C19.4898 39.8263 19.4961 39.827 19.5023 39.8249C19.5051 39.8235 19.5072 39.8214 19.51 39.82C19.8365 39.7248 20.1477 39.5991 20.424 39.4385C21.7482 38.6686 22.2847 37.3532 21.8235 36.0065C20.5007 32.1409 20.6082 29.2377 22.1438 27.3796C24.8013 24.1644 30.9667 24.9545 31.0274 24.9649L31.7446 25.0622L31.8165 24.3451C31.8263 24.2506 32.0321 22.0117 30.7204 20.4906C30.6444 20.4023 30.5641 20.3183 30.4811 20.2383C30.8516 20.1563 31.2186 20.0396 31.5786 19.8874C34.0672 18.8396 35.7103 16.5034 35.7633 13.9337ZM7.76071 30.4523L7.56536 30.0702L7.13489 30.0729H7.11675C6.01789 30.0729 4.88974 29.4086 4.30577 28.415C3.88019 27.6909 3.79297 26.9008 4.06647 26.2469L4.27856 25.7404L3.83344 25.4172C3.14762 24.9197 2.56156 24.27 2.13876 23.5369C1.39294 22.2423 1.19619 20.8227 1.60085 19.6428C1.90364 18.7603 2.51133 18.1099 3.35832 17.7611L4.18507 17.4213L3.65274 16.7062C3.40367 16.3706 3.18738 16.0211 3.01157 15.6674C2.29505 14.2248 2.1269 12.6127 2.56365 11.3557C2.8525 10.5218 3.38134 9.90199 4.09158 9.56428L4.6888 9.27938L4.43415 8.66997L4.40345 8.60396C3.79018 7.16139 3.72111 5.62779 4.22066 4.49375C4.4195 4.04138 4.8095 3.44796 5.533 3.19433C6.22929 2.94973 7.06163 3.11928 7.88141 3.66823L8.68654 4.20885L8.94328 3.27563C9.23213 2.22914 9.85725 1.55441 10.6596 1.42517C11.7054 1.24797 12.9445 2.14576 13.6764 3.58832C13.735 3.70437 13.7894 3.8225 13.8396 3.94341C13.8236 3.95244 13.8103 3.96425 13.7943 3.97329C13.6513 4.05806 13.5124 4.14979 13.3792 4.24846C13.2989 4.30683 13.2236 4.36937 13.1475 4.4326C13.0966 4.47499 13.0471 4.51877 12.9982 4.56254C12.7178 4.8134 12.4687 5.09274 12.2545 5.39779C12.2385 5.42072 12.2238 5.44365 12.2078 5.46658C12.0843 5.64864 11.974 5.83765 11.8757 6.0343C11.8512 6.08224 11.8261 6.13019 11.8031 6.17883C11.7605 6.27195 11.7215 6.36575 11.6845 6.46165C11.6454 6.56171 11.6119 6.66316 11.5798 6.766C11.5533 6.85147 11.5268 6.93625 11.5052 7.0238C11.4668 7.1732 11.4368 7.32538 11.4131 7.47964C11.4047 7.53593 11.397 7.59152 11.3901 7.6485C11.367 7.8389 11.3517 8.03138 11.3517 8.22733C11.3517 8.3545 11.3573 8.48166 11.367 8.61091C8.72282 9.08482 6.74837 11.3731 6.74837 14.1227C6.74837 14.9176 6.9207 15.7056 7.2514 16.4304C6.50837 17.2218 6.09115 18.2635 6.09115 19.3628C6.09115 21.0055 7.03861 22.4953 8.49467 23.2124C8.49119 23.5842 8.49677 23.9462 8.50933 24.3013C8.51351 24.4173 8.52258 24.5299 8.52816 24.6445C8.54002 24.8808 8.55398 25.1164 8.57351 25.3464C8.58467 25.4777 8.60002 25.6063 8.61328 25.7355C8.63491 25.9433 8.65863 26.1496 8.68723 26.3519C8.70537 26.4839 8.72631 26.6152 8.74724 26.7452C8.77863 26.9397 8.81282 27.1322 8.85049 27.3226C8.87561 27.4512 8.90212 27.579 8.93003 27.7062C8.97189 27.8959 9.01794 28.0842 9.06608 28.2704C9.09678 28.3906 9.12747 28.5108 9.16026 28.6297C9.21538 28.8249 9.27538 29.0174 9.33748 29.2085C9.37097 29.3134 9.40306 29.4197 9.43864 29.524C9.51748 29.754 9.60399 29.9812 9.6933 30.2077C9.71772 30.2696 9.73934 30.3335 9.76446 30.3954C9.88097 30.6816 10.0059 30.9659 10.1391 31.2473C10.1768 31.3272 10.2187 31.4064 10.2577 31.4856C10.3561 31.6871 10.4559 31.888 10.5626 32.0881C10.6198 32.1951 10.6812 32.3021 10.7412 32.4098C10.8368 32.5814 10.9331 32.7531 11.0349 32.9233C11.104 33.0394 11.1759 33.1554 11.247 33.2708C11.3468 33.4327 11.4487 33.5946 11.554 33.7565C11.6315 33.876 11.711 33.9955 11.7912 34.115C11.8994 34.2756 12.0103 34.4361 12.124 34.5973C12.2078 34.7168 12.2922 34.8363 12.3794 34.9558C12.4987 35.1198 12.6222 35.2852 12.7464 35.4506C12.835 35.568 12.9215 35.6855 13.0129 35.8036C13.1482 35.9794 13.2899 36.1573 13.4315 36.3352C13.518 36.4443 13.6017 36.552 13.6903 36.6618C13.698 36.6715 13.7057 36.6812 13.7134 36.691C11.1508 35.2692 9.33957 33.5404 7.76071 30.4523ZM27.9416 18.8493L27.756 18.8187L27.0807 18.9744L27.0067 20.508L27.703 20.5448C28.5619 20.5886 29.2009 20.8658 29.6565 21.3905C30.2098 22.0277 30.3772 22.9067 30.4226 23.5119C28.5032 23.3875 23.6236 23.4063 21.0694 26.4916C19.2024 28.7465 19.0119 32.0979 20.5022 36.4534C20.8322 37.4185 20.1534 37.9849 19.7194 38.2371C19.6887 38.2552 19.6538 38.267 19.6224 38.2837C18.2577 34.9399 17.4059 31.9651 16.9468 29.326C16.944 29.3093 16.9426 29.2933 16.9391 29.2773C16.5763 27.1719 16.4584 25.2797 16.5268 23.5849C17.5035 21.9262 20.3745 21.8595 20.4038 21.8588C20.7889 21.8526 21.0966 21.5378 21.091 21.1542C21.0855 20.7734 20.775 20.4691 20.3941 20.4691H20.3857C20.272 20.4704 18.2829 20.5135 16.7047 21.4989C16.8973 20.123 17.2175 18.9042 17.6145 17.8216C17.6535 17.7743 17.6891 17.7229 17.7156 17.6638C17.7561 17.5749 17.7749 17.4818 17.7763 17.39C18.2766 16.1365 18.8787 15.0844 19.5052 14.2068C22.6336 13.5585 24.9939 14.5334 25.0462 14.5549C25.1376 14.5952 25.2325 14.6133 25.3246 14.6133C25.5932 14.6133 25.8493 14.4577 25.9644 14.1978C26.1193 13.8462 25.9581 13.4362 25.6058 13.2819C25.5088 13.2395 23.5839 12.4217 20.8162 12.6225C22.1676 11.2181 23.355 10.5816 23.5315 10.492C24.5453 10.0084 26.0265 10.633 26.5128 10.9159C26.6237 10.9812 26.7451 11.0118 26.8658 11.0118C27.1044 11.0118 27.3374 10.8895 27.4672 10.6699C27.6625 10.3391 27.553 9.91385 27.2202 9.71859C27.1407 9.67134 25.5723 8.76799 23.9655 8.94936C24.1029 8.38581 24.4078 7.87368 24.5634 7.668C24.7971 7.36364 24.7385 6.92795 24.4323 6.69517C24.1274 6.46239 23.6885 6.51937 23.4548 6.82511C23.4108 6.8814 22.4955 8.09049 22.4976 9.48233C21.4824 10.1015 18.8598 11.9783 17.0249 15.7501C16.9259 15.953 16.8303 16.1712 16.7354 16.3901C14.8321 15.0942 15.1454 12.7886 15.1628 12.6767C15.2221 12.2987 14.9633 11.9436 14.583 11.8831C14.2035 11.8192 13.8449 12.0812 13.7842 12.4599C13.5819 13.7211 13.8721 16.3199 16.2226 17.7159C15.7035 19.2363 15.31 21.0514 15.1886 23.1937C15.1747 23.2611 15.1719 23.3264 15.1775 23.3931C15.1049 24.8947 15.1747 26.5604 15.4175 28.3844C14.5328 27.8994 14.1281 27.1899 14.1023 27.142C13.9202 26.805 13.5002 26.6757 13.1612 26.8543C12.8207 27.0329 12.6888 27.4533 12.8688 27.7931C12.9058 27.8633 13.7409 29.401 15.6714 29.9951C16.1403 32.5579 16.9642 35.4228 18.248 38.6054C17.807 38.5991 17.3724 38.49 17.0012 38.2573L17.0019 38.2552C16.9266 38.2072 16.8638 38.1607 16.8024 38.1134C16.7263 38.0516 16.6496 37.9911 16.5826 37.9168C16.5791 37.9133 16.5749 37.9098 16.5714 37.9063L16.2784 37.5742C11.9095 32.5662 9.72296 28.9028 9.89669 22.7767L9.91134 22.2702L9.43133 22.102C8.2669 21.6913 7.48409 20.5907 7.48409 19.3635C7.48409 18.49 7.8734 17.6708 8.55155 17.1163L9.00923 16.7424L8.71202 16.2317C8.33876 15.5889 8.14131 14.86 8.14131 14.1241C8.14131 11.8588 9.9232 10.0111 12.1977 9.91593L13.0453 9.88049L12.8472 9.05915C12.7788 8.77703 12.7446 8.49699 12.7446 8.22877C12.7446 8.01544 12.7684 7.80767 12.8053 7.60338C12.8144 7.55126 12.8291 7.50123 12.8402 7.4505C12.8765 7.29138 12.9218 7.13503 12.9791 6.98424C12.9944 6.94255 13.0105 6.90155 13.0279 6.86055C13.1039 6.68197 13.1905 6.50825 13.2937 6.34565C13.2979 6.33939 13.3007 6.33244 13.3049 6.32619C13.5295 5.97597 13.8163 5.66953 14.1463 5.4152C14.1916 5.38046 14.2398 5.34988 14.2865 5.31722C14.3982 5.2394 14.514 5.16922 14.634 5.10459C14.7093 5.06429 14.7847 5.02538 14.8635 4.99063C15.2305 4.82595 15.6268 4.71199 16.0475 4.68072L16.6921 4.63207V3.98584L16.6907 3.93164C16.7145 2.52659 17.8677 1.38977 19.284 1.38977C19.9147 1.38977 20.5287 1.62881 21.0122 2.06311L21.5013 2.50297L21.9701 2.04157C22.4627 1.55654 23.1387 1.32445 23.8385 1.40714C24.7148 1.50998 25.4753 2.16109 25.7292 3.0269C25.8137 3.3125 25.8388 3.60296 25.8046 3.88994L25.7327 4.66473H26.5176C28.5598 4.66473 30.2684 6.25462 30.4086 8.28436L30.4407 8.74089L30.874 8.89238C33.011 9.63868 34.4147 11.6531 34.368 13.9052C34.3261 15.9273 33.018 17.7722 31.0358 18.6061C30.0382 19.0251 29.0258 19.1043 27.9416 18.8493Z" fill="#F9F9F9"/>
</svg>
